<svg width="235" height="65" viewBox="0 0 235 65" fill="none" xmlns="http://www.w3.org/2000/svg">
<g clip-path="url(#clip0_1_6653)">
<path d="M43.375 6.49033C38.7282 1.88253 31.657 7.89271 26 7.8927C20.343 7.89271 13.2717 1.88253 8.62488 6.49033C0.947526 14.1032 9.8371 44.3544 15.2921 47.9605C21.3647 51.9749 18.9287 26.1236 26 26.1236C33.0712 26.1236 30.6352 51.9749 36.7079 47.9605C42.1628 44.3544 51.0524 14.1032 43.375 6.49033Z" fill="white"/>
<path fill-rule="evenodd" clip-rule="evenodd" d="M22.6241 3.76156C24.0741 4.2316 25.151 4.46785 26.0001 4.46785C26.8492 4.46785 27.9261 4.2316 29.376 3.76156C30.0058 3.55741 30.6423 3.33141 31.3331 3.08615C31.42 3.05528 31.5078 3.0241 31.5966 2.99262C32.3683 2.71897 33.2043 2.42554 34.0485 2.16702C37.2458 1.18797 42.0109 0.242891 45.832 4.06933C48.7104 6.95188 49.6341 11.4381 49.8033 15.6443C49.9797 20.0302 49.3654 24.9892 48.356 29.689C47.3434 34.4037 45.8991 39.0147 44.3244 42.7333C43.5382 44.59 42.693 46.2873 41.8169 47.6876C40.9936 49.0035 39.9424 50.3884 38.6369 51.2599C37.9411 51.7244 37.0553 52.1439 36.0079 52.2478C34.8961 52.3581 33.8505 52.0865 32.9705 51.5438C31.4277 50.5922 30.6564 48.9769 30.2386 47.911C29.3856 45.7355 28.8538 42.6307 28.3837 39.8863C28.3595 39.745 28.3355 39.6046 28.3116 39.4654C27.7796 36.3684 27.2769 33.5607 26.5406 31.5217C26.3455 30.9812 26.1611 30.5757 26.0001 30.2791C25.8391 30.5757 25.6547 30.9812 25.4595 31.5217C24.7233 33.5607 24.2205 36.3684 23.6886 39.4654C23.6647 39.6046 23.6406 39.7449 23.6164 39.8862C23.1463 42.6307 22.6145 45.7355 21.7616 47.911C21.3437 48.9769 20.5724 50.5923 19.0296 51.5438C18.1496 52.0865 17.104 52.3581 15.9923 52.2478C14.9448 52.1439 14.059 51.7244 13.3632 51.2599C12.0577 50.3884 11.0066 49.0035 10.1832 47.6876C9.3071 46.2873 8.46189 44.59 7.67571 42.7333C6.10106 39.0147 4.65674 34.4037 3.64411 29.689C2.6347 24.9892 2.02041 20.0302 2.19685 15.6443C2.36605 11.4381 3.2897 6.95188 6.16816 4.06933C9.98918 0.24289 14.7544 1.18797 17.9516 2.16702C18.7958 2.42554 19.6319 2.71897 20.4036 2.99262C20.4923 3.0241 20.5801 3.05527 20.667 3.08614C21.3578 3.3314 21.9944 3.55741 22.6241 3.76156ZM15.9158 8.77435C13.0014 7.88191 11.9076 8.11886 11.0818 8.94584C10.1216 9.90742 9.2774 12.1232 9.12461 15.9213C8.97905 19.5398 9.4886 23.8877 10.4238 28.2418C11.3557 32.581 12.6768 36.771 14.0632 40.0452C14.6718 41.4823 15.2726 42.6946 15.832 43.6438C16.1734 42.2424 16.4879 40.4345 16.8547 38.2988L16.8594 38.2717C17.3604 35.3543 17.9535 31.9016 18.936 29.1806C19.4293 27.8144 20.1171 26.3454 21.1542 25.1684C22.2622 23.9109 23.8845 22.8792 26.0001 22.8792C28.1156 22.8792 29.738 23.9109 30.8459 25.1684C31.883 26.3455 32.5709 27.8144 33.0642 29.1806C34.0467 31.9016 34.6397 35.3543 35.1408 38.2717L35.1454 38.2988C35.5123 40.4344 35.8267 42.2423 36.1682 43.6438C36.7275 42.6946 37.3283 41.4823 37.9369 40.0452C39.3233 36.771 40.6444 32.581 41.5763 28.2418C42.5115 23.8877 43.0211 19.5398 42.8755 15.9213C42.7227 12.1232 41.8785 9.90742 40.9183 8.94585C40.0925 8.11886 38.9987 7.88192 36.0843 8.77435C35.4007 8.9837 34.693 9.23085 33.9202 9.50489C33.8343 9.53535 33.7475 9.56621 33.6597 9.59739C32.9804 9.83867 32.248 10.0988 31.52 10.3348C29.9079 10.8574 27.9795 11.3798 26.0001 11.3798C24.0207 11.3798 22.0923 10.8574 20.4801 10.3348C19.7522 10.0988 19.0198 9.83868 18.3405 9.59739C18.2527 9.56621 18.1658 9.53535 18.0799 9.50489C17.3071 9.23085 16.5995 8.9837 15.9158 8.77435ZM34.7672 45.5243C34.7672 45.5243 34.7688 45.5232 34.772 45.5214C34.7688 45.5234 34.7673 45.5243 34.7672 45.5243ZM17.2329 45.5243C17.233 45.5244 17.2314 45.5234 17.2281 45.5214C17.2312 45.5232 17.2328 45.5242 17.2329 45.5243Z" fill="#005341"/>
<mask id="mask0_1_6653" style="mask-type:alpha" maskUnits="userSpaceOnUse" x="-18" y="-18" width="87" height="36">
<ellipse cx="25.7834" cy="-0.163483" rx="43.1167" ry="17.3935" fill="#C4C4C4"/>
</mask>
<g mask="url(#mask0_1_6653)">
<path fill-rule="evenodd" clip-rule="evenodd" d="M22.6241 3.76156C24.0741 4.2316 25.151 4.46785 26.0001 4.46785C26.8492 4.46785 27.9261 4.2316 29.376 3.76156C30.0058 3.55741 30.6423 3.33141 31.3331 3.08615C31.42 3.05528 31.5078 3.0241 31.5966 2.99262C32.3683 2.71897 33.2043 2.42554 34.0485 2.16702C37.2458 1.18797 42.0109 0.242891 45.832 4.06933C48.7104 6.95188 49.6341 11.4381 49.8033 15.6443C49.9797 20.0302 49.3654 24.9892 48.356 29.689C47.3434 34.4037 45.8991 39.0147 44.3244 42.7333C43.5382 44.59 42.693 46.2873 41.8169 47.6876C40.9936 49.0035 39.9424 50.3884 38.6369 51.2599C37.9411 51.7244 37.0553 52.1439 36.0079 52.2478C34.8961 52.3581 33.8505 52.0865 32.9705 51.5438C31.4277 50.5922 30.6564 48.9769 30.2386 47.911C29.3856 45.7355 28.8538 42.6307 28.3837 39.8863C28.3595 39.745 28.3355 39.6046 28.3116 39.4654C27.7796 36.3684 27.2769 33.5607 26.5406 31.5217C26.3455 30.9812 26.1611 30.5757 26.0001 30.2791C25.8391 30.5757 25.6547 30.9812 25.4595 31.5217C24.7233 33.5607 24.2205 36.3684 23.6886 39.4654C23.6647 39.6046 23.6406 39.7449 23.6164 39.8862C23.1463 42.6307 22.6145 45.7355 21.7616 47.911C21.3437 48.9769 20.5724 50.5923 19.0296 51.5438C18.1496 52.0865 17.104 52.3581 15.9923 52.2478C14.9448 52.1439 14.059 51.7244 13.3632 51.2599C12.0577 50.3884 11.0066 49.0035 10.1832 47.6876C9.3071 46.2873 8.46189 44.59 7.67571 42.7333C6.10106 39.0147 4.65674 34.4037 3.64411 29.689C2.6347 24.9892 2.02041 20.0302 2.19685 15.6443C2.36605 11.4381 3.2897 6.95188 6.16816 4.06933C9.98918 0.24289 14.7544 1.18797 17.9516 2.16702C18.7958 2.42554 19.6319 2.71897 20.4036 2.99262C20.4923 3.0241 20.5801 3.05527 20.667 3.08614C21.3578 3.3314 21.9944 3.55741 22.6241 3.76156ZM15.9158 8.77435C13.0014 7.88191 11.9076 8.11886 11.0818 8.94584C10.1216 9.90742 9.2774 12.1232 9.12461 15.9213C8.97905 19.5398 9.4886 23.8877 10.4238 28.2418C11.3557 32.581 12.6768 36.771 14.0632 40.0452C14.6718 41.4823 15.2726 42.6946 15.832 43.6438C16.1734 42.2424 16.4879 40.4345 16.8547 38.2988L16.8594 38.2717C17.3604 35.3543 17.9535 31.9016 18.936 29.1806C19.4293 27.8144 20.1171 26.3454 21.1542 25.1684C22.2622 23.9109 23.8845 22.8792 26.0001 22.8792C28.1156 22.8792 29.738 23.9109 30.8459 25.1684C31.883 26.3455 32.5709 27.8144 33.0642 29.1806C34.0467 31.9016 34.6397 35.3543 35.1408 38.2717L35.1454 38.2988C35.5123 40.4344 35.8267 42.2423 36.1682 43.6438C36.7275 42.6946 37.3283 41.4823 37.9369 40.0452C39.3233 36.771 40.6444 32.581 41.5763 28.2418C42.5115 23.8877 43.0211 19.5398 42.8755 15.9213C42.7227 12.1232 41.8785 9.90742 40.9183 8.94585C40.0925 8.11886 38.9987 7.88192 36.0843 8.77435C35.4007 8.9837 34.693 9.23085 33.9202 9.50489C33.8343 9.53535 33.7475 9.56621 33.6597 9.59739C32.9804 9.83867 32.248 10.0988 31.52 10.3348C29.9079 10.8574 27.9795 11.3798 26.0001 11.3798C24.0207 11.3798 22.0923 10.8574 20.4801 10.3348C19.7522 10.0988 19.0198 9.83868 18.3405 9.59739C18.2527 9.56621 18.1658 9.53535 18.0799 9.50489C17.3071 9.23085 16.5995 8.9837 15.9158 8.77435ZM34.7672 45.5243C34.7672 45.5243 34.7688 45.5232 34.772 45.5214C34.7688 45.5234 34.7673 45.5243 34.7672 45.5243ZM17.2329 45.5243C17.233 45.5244 17.2314 45.5234 17.2281 45.5214C17.2312 45.5232 17.2328 45.5242 17.2329 45.5243Z" fill="#C5BDAA"/>
</g>
</g>
<path d="M49 52L63.15 16.85H68.7L82.8 52H75.55L64.65 23.15H67.15L56.1 52H49ZM56.5 45.45V39.75H75.4V45.45H56.5ZM93.2617 38.45L79.6617 16.85H87.5117L98.0617 34.15H93.5617L104.112 16.85H111.862L98.1117 38.45H93.2617ZM92.3617 52V34.8H99.2117V52H92.3617ZM108.717 52L122.867 16.85H128.417L142.517 52H135.267L124.367 23.15H126.867L115.817 52H108.717ZM116.217 45.45V39.75H135.117V45.45H116.217ZM146.668 52V16.85H153.468V52H146.668ZM151.668 52V45.95H169.568V52H151.668ZM170.777 52L184.927 16.85H190.477L204.577 52H197.327L186.427 23.15H188.927L177.877 52H170.777ZM178.277 45.45V39.75H197.177V45.45H178.277ZM215.039 38.45L201.439 16.85H209.289L219.839 34.15H215.339L225.889 16.85H233.639L219.889 38.45H215.039ZM214.139 52V34.8H220.989V52H214.139Z" fill="#005341"/>
<defs>
<clipPath id="clip0_1_6653">
<rect width="52" height="54" fill="white"/>
</clipPath>
</defs>
</svg>
